
<svg width="383px" height="512px" viewBox="0 0 383 512" version="1.1" xmlns="http://www.w3.org/2000/svg" xmlns:xlink="http://www.w3.org/1999/xlink">
    <!-- Generator: Sketch 48.1 (47250) - http://www.bohemiancoding.com/sketch -->
    <desc>Created with Sketch.</desc>
    <defs></defs>
    <g id="UI-ClientWeb-Student" stroke="none" stroke-width="1" fill="none" fill-rule="evenodd">
        <g id="Coffee,-Bag,-Beans,-Kitchen,-Food,-Drink" transform="translate(0.292929, 0.000000)" fill-rule="nonzero">
            <g id="Coffee_bag">
                <path d="M122.19604,14.9708283 L122.19604,90.825697 L100.48,106.612364 L100.48,434.169535 C100.48,434.169535 119.443394,453.132929 118.445253,495.053576 L31.9392323,491.06101 L14.6437172,415.870707 L23.6269899,96.4796768 L31.9392323,14.9721212 L122.19604,14.9708283 Z" id="Shape" fill="#FDBB03"></path>
                <path d="M382.276525,137.977535 L374.627556,101.165253 L374.627556,15.9689697 C374.626263,7.14989899 367.476364,0 358.657293,0 L23.954101,0 C15.1350303,0 7.98513131,7.14989899 7.98513131,15.9689697 L7.98513131,101.165253 L0.336161616,137.977535 C0.112484848,139.046788 0,140.13802 0,141.229253 L0,422.191838 C0,423.536485 0.171959596,424.874667 0.506828283,426.180525 L7.98513131,455.160242 L7.98513131,495.052283 C7.98513131,503.871354 15.1350303,511.021253 23.954101,511.021253 L358.657293,511.021253 C367.476364,511.021253 374.626263,503.871354 374.626263,495.052283 L374.626263,455.160242 L382.104566,426.180525 C382.439434,424.874667 382.611394,423.537778 382.611394,422.191838 L382.611394,141.229253 C382.611394,140.13802 382.498909,139.046788 382.276525,137.977535 Z M342.688323,31.9392323 L342.688323,75.1334141 L341.264808,74.2529293 C336.111192,71.0671515 329.607758,71.0671515 324.452848,74.2529293 L307.068121,85.0178586 L289.718303,74.2606869 C284.564687,71.0632727 278.041859,71.0632727 272.886949,74.2606869 L255.552646,85.010101 L238.222222,74.2606869 C233.064727,71.0593939 226.53802,71.0671515 221.379232,74.2645657 L204.083717,85.0062222 L186.757172,74.2606869 C181.603556,71.0632727 175.076848,71.0632727 169.921939,74.2606869 L152.595394,85.010101 L135.272727,74.2645657 C130.119111,71.0593939 123.592404,71.0632727 118.429737,74.2645657 L101.130343,85.0062222 L83.8115556,74.2645657 C78.6540606,71.0593939 72.1273535,71.0671515 66.9685657,74.2645657 L49.6730505,85.0062222 L39.917899,78.9514343 L39.917899,31.9392323 L342.688323,31.9392323 Z M350.672162,420.164525 L343.193859,449.144242 C342.85899,450.446222 342.68703,451.78699 342.68703,453.132929 L342.68703,479.083313 L39.9230707,479.083313 L39.9230707,453.132929 C39.9230707,451.788283 39.7511111,450.446222 39.4162424,449.144242 L31.9379394,420.164525 L31.9379394,142.867394 L37.6966465,115.158626 L41.2599596,117.369535 C46.4174545,120.574707 52.9480404,120.570828 58.1068283,117.369535 L75.4023434,106.627879 L92.7211313,117.369535 C97.8747475,120.574707 104.401455,120.570828 109.564121,117.369535 L126.863515,106.627879 L144.182303,117.369535 C149.335919,120.574707 155.862626,120.570828 161.017535,117.373414 L178.344081,106.624 L195.674505,117.373414 C200.832,120.574707 207.358707,120.570828 212.517495,117.369535 L229.81301,106.627879 L247.139556,117.373414 C252.293172,120.570828 258.819879,120.570828 263.974788,117.373414 L281.309091,106.624 L298.651152,117.373414 C303.79701,120.566949 310.308202,120.570828 315.470869,117.381172 L332.863354,106.612364 L344.661333,113.914828 L350.677333,142.867394 L350.677333,420.164525 L350.672162,420.164525 Z" id="Shape" fill="#80CBC4"></path>
                <path d="M207.314747,196.046869 C207.233293,196.046869 207.146667,196.046869 207.061333,196.046869 C187.454061,196.124444 167.00897,205.473616 150.976646,221.689535 C122.66796,250.31499 117.704404,291.582707 139.911758,313.689212 C148.992,322.722909 161.223111,327.495111 175.296646,327.495111 C175.378101,327.495111 175.464727,327.495111 175.550061,327.491232 C195.157333,327.413657 215.602424,318.068364 231.634747,301.852444 C259.943434,273.223111 264.90699,231.955394 242.699636,209.852768 C233.619394,200.819071 221.388283,196.046869 207.314747,196.046869 Z M168.007111,238.531232 C179.430141,226.978909 194.066101,220.055273 207.158303,219.999677 C207.208727,219.999677 207.255273,219.999677 207.30699,219.999677 C209.94198,219.999677 213.101899,220.303515 216.307071,221.274505 C215.014141,227.340929 210.739717,237.999838 196.635152,246.818909 C191.06004,250.304646 186.210263,252.990061 181.929374,255.361293 C167.774384,263.209374 158.364444,269.076687 150.450424,283.635071 C148.084364,270.085172 154.393859,252.298343 168.007111,238.531232 Z M214.605576,285.009455 C203.182545,296.557899 188.546586,303.485414 175.454384,303.54101 C173.185293,303.564283 170.59297,303.268202 167.955394,302.651475 C174.087758,287.110465 179.872323,283.894949 193.545051,276.314505 C198.141414,273.764848 203.346747,270.875152 209.339475,267.129535 C220.712081,260.018424 227.929212,251.814788 232.582465,244.028768 C233.166869,256.938667 226.878061,272.59604 214.605576,285.009455 Z" id="Shape" fill="#80CBC4"></path>
                <path d="M319.061333,429.178828 L315.068768,429.178828 C308.452848,429.178828 303.091071,434.543192 303.091071,441.156525 C303.091071,447.769859 308.451556,453.134222 315.068768,453.134222 L319.061333,453.134222 C325.677253,453.134222 331.03903,447.769859 331.03903,441.156525 C331.03903,434.543192 325.677253,429.178828 319.061333,429.178828 Z" id="Shape" fill="#80CBC4"></path>
                <path d="M152.895354,429.178828 L144.360727,429.178828 C137.744808,429.178828 132.38303,434.543192 132.38303,441.156525 C132.38303,447.769859 137.743515,453.134222 144.360727,453.134222 L152.895354,453.134222 C159.511273,453.134222 164.873051,447.769859 164.873051,441.156525 C164.873051,434.543192 159.511273,429.178828 152.895354,429.178828 Z" id="Shape" fill="#80CBC4"></path>
                <path d="M110.218343,429.178828 L101.683717,429.178828 C95.067798,429.178828 89.7060202,434.543192 89.7060202,441.156525 C89.7060202,447.769859 95.0665051,453.134222 101.683717,453.134222 L110.218343,453.134222 C116.834263,453.134222 122.19604,447.769859 122.19604,441.156525 C122.19604,434.543192 116.835556,429.178828 110.218343,429.178828 Z" id="Shape" fill="#80CBC4"></path>
                <path d="M280.927677,429.178828 L272.393051,429.178828 C265.777131,429.178828 260.415354,434.543192 260.415354,441.156525 C260.415354,447.769859 265.775838,453.134222 272.393051,453.134222 L280.927677,453.134222 C287.543596,453.134222 292.905374,447.769859 292.905374,441.156525 C292.905374,434.543192 287.543596,429.178828 280.927677,429.178828 Z" id="Shape" fill="#80CBC4"></path>
                <path d="M195.574949,429.178828 L187.036444,429.178828 C180.420525,429.178828 175.058747,434.543192 175.058747,441.156525 C175.058747,447.769859 180.419232,453.134222 187.036444,453.134222 L195.574949,453.134222 C202.190869,453.134222 207.552646,447.769859 207.552646,441.156525 C207.552646,434.543192 202.190869,429.178828 195.574949,429.178828 Z" id="Shape" fill="#80CBC4"></path>
                <path d="M238.250667,429.178828 L229.71604,429.178828 C223.100121,429.178828 217.738343,434.543192 217.738343,441.156525 C217.738343,447.769859 223.098828,453.134222 229.71604,453.134222 L238.250667,453.134222 C244.866586,453.134222 250.228364,447.769859 250.228364,441.156525 C250.228364,434.543192 244.867879,429.178828 238.250667,429.178828 Z" id="Shape" fill="#80CBC4"></path>
                <path d="M67.5426263,429.178828 L63.5500606,429.178828 C56.9341414,429.178828 51.5723636,434.543192 51.5723636,441.156525 C51.5723636,447.769859 56.9328485,453.134222 63.5500606,453.134222 L67.5426263,453.134222 C74.1585455,453.134222 79.5203232,447.769859 79.5203232,441.156525 C79.5203232,434.543192 74.1585455,429.178828 67.5426263,429.178828 Z" id="Shape" fill="#80CBC4"></path>
            </g>
        </g>
    </g>
</svg>