
<svg width="511px" height="252px" viewBox="0 0 511 252" version="1.1" xmlns="http://www.w3.org/2000/svg" xmlns:xlink="http://www.w3.org/1999/xlink">
    <!-- Generator: Sketch 48.1 (47250) - http://www.bohemiancoding.com/sketch -->
    <desc>Created with Sketch.</desc>
    <defs></defs>
    <g id="UI-ClientWeb-Student" stroke="none" stroke-width="1" fill="none" fill-rule="evenodd">
        <g id="Tea,-Mug,-Beverage,-Kitchen,-Food,-Drink,-Coffee,-Cup" fill-rule="nonzero">
            <g id="tea">
                <path d="M121.619085,12.4169871 C121.619085,12.4169871 103.131805,190.685121 325.308216,201.479239 C325.308216,201.479239 290.21055,226.451414 207.004627,230.688247 C123.798704,234.92508 38.1051722,193.776864 16.4287506,18.7728946 L121.619085,12.4169871 Z" id="Shape" fill="#FDBB03"></path>
                <path d="M391.189059,159.638704 C466.185871,150.35163 501.325656,109.681193 509.068833,74.0557326 C515.049625,46.5393522 505.06365,20.6339949 483.624144,8.06432905 C461.546283,-4.87387147 440.676689,-0.544904884 424.347969,9.13571208 C421.685306,3.73799486 416.138859,0.0552802057 409.769789,0.0552802057 L16.4669203,0.0552802057 C7.91823136,0.0552802057 0.829203085,6.67969152 0.246128535,15.2086375 C0.143465296,16.7643805 -7.37069409,147.60473 86.9360206,218.784576 L16.256329,218.784576 C7.27856041,218.784576 0,226.063136 0,235.040905 C0,244.018674 7.27856041,251.297234 16.256329,251.297234 L483.472781,251.297234 C492.45055,251.297234 499.729111,244.018674 499.729111,235.040905 C499.729111,226.063136 492.45055,218.784576 483.472781,218.784576 L339.303321,218.784576 C362.007692,201.646396 378.768123,181.055835 391.189059,159.638704 Z M467.176967,36.1137686 C476.404812,41.5233316 480.282324,53.4138406 477.297193,67.1509717 C472.840555,87.6546632 451.955167,112.634735 408.199568,123.542046 C418.084195,97.0141285 422.609275,71.4931003 424.623054,51.8791568 C429.495609,45.5837943 447.717018,24.6984062 467.176967,36.1137686 Z M156.49563,218.784576 C47.1592802,182.170653 33.6880206,73.0804319 32.545563,32.5692545 L393.688514,32.5692545 C392.550005,73.1001748 379.070848,182.174602 269.746344,218.784576 L156.49563,218.784576 Z" id="Shape" fill="#80CBC4"></path>
            </g>
        </g>
    </g>
</svg>