
<svg width="338px" height="511px" viewBox="0 0 338 511" version="1.1" xmlns="http://www.w3.org/2000/svg" xmlns:xlink="http://www.w3.org/1999/xlink">
    <!-- Generator: Sketch 48.1 (47250) - http://www.bohemiancoding.com/sketch -->
    <desc>Created with Sketch.</desc>
    <defs></defs>
    <g id="UI-ClientWeb-Student" stroke="none" stroke-width="1" fill="none" fill-rule="evenodd">
        <g id="Coffee,-Mug,-Beverage,-Kitchen,-Food,-Drink" fill-rule="nonzero">
            <g id="Coffee">
                <path d="M95.0941538,131.072 C95.0941538,131.072 67.8715077,441.861251 269.73079,439.835569 L265.668923,494.561805 L68.0868103,494.561805 L43.2416821,131.072 L95.0941538,131.072 Z" id="Shape" fill="#FDBB03"></path>
                <path d="M321.602954,57.4253949 L308.327713,57.4253949 L302.190277,13.9500308 C301.056,5.9457641 294.212267,0 286.131856,0 L51.6857436,0 C43.6053333,0 36.7616,5.9457641 35.6286359,13.9513436 L29.4912,57.4267077 L16.2146462,57.4267077 C7.25989744,57.4253949 0,64.6866051 0,73.6413538 L0,129.721108 C0,138.675856 7.25989744,145.935754 16.2146462,145.935754 L26.0437333,145.935754 L49.3568,495.638318 C49.9265641,504.15721 57.0013538,510.776451 65.536,510.776451 L272.278974,510.776451 C280.813621,510.776451 287.88841,504.15721 288.458174,495.638318 L311.771241,145.935754 L321.600328,145.935754 C330.555077,145.935754 337.814974,138.675856 337.814974,129.721108 L337.814974,73.6413538 C337.8176,64.6866051 330.557703,57.4253949 321.602954,57.4253949 Z M32.4306051,113.506462 L32.4306051,89.856 L305.388308,89.856 L305.388308,113.506462 L32.4306051,113.506462 Z M65.7709949,32.4306051 L272.046605,32.4306051 L275.574154,57.4267077 L62.2434462,57.4267077 L65.7709949,32.4306051 Z M80.7069538,478.345846 L72.1486769,349.974318 L109.737354,349.974318 C124.539405,367.033108 146.074913,376.993477 168.9088,376.993477 C191.742687,376.993477 213.278195,367.033108 228.084185,349.974318 L265.668923,349.974318 L257.110646,478.345846 L80.7069538,478.345846 Z M267.546256,317.545026 L220.16,317.545026 C214.819446,317.545026 209.820226,320.177231 206.795487,324.579118 C198.200451,337.092923 184.036431,344.562872 168.910113,344.562872 C153.783795,344.562872 139.623713,337.092923 131.032615,324.579118 C128.007877,320.177231 123.008656,317.545026 117.664164,317.545026 L70.2726564,317.545026 L68.0868103,279.702974 L117.658913,279.702974 C122.999467,279.702974 127.998687,277.074708 131.023426,272.668882 C139.618462,260.155077 153.782482,252.685128 168.9088,252.685128 C184.035118,252.685128 198.199138,260.155077 206.794174,272.668882 C209.818913,277.074708 214.818133,279.702974 220.158687,279.702974 L269.73079,279.702974 L267.546256,317.545026 Z M272.515282,247.272369 L228.084185,247.272369 C213.278195,230.213579 191.742687,220.25321 168.9088,220.25321 C146.074913,220.25321 124.539405,230.213579 109.733415,247.272369 L65.3023179,247.272369 L58.5465436,145.935754 L279.272369,145.935754 L272.515282,247.272369 Z" id="Shape" fill="#80CBC4"></path>
            </g>
        </g>
    </g>
</svg>