
<svg width="512px" height="512px" viewBox="0 0 512 512" version="1.1" xmlns="http://www.w3.org/2000/svg" xmlns:xlink="http://www.w3.org/1999/xlink">
    <!-- Generator: Sketch 48.1 (47250) - http://www.bohemiancoding.com/sketch -->
    <desc>Created with Sketch.</desc>
    <defs></defs>
    <g id="UI-ClientWeb-Student" stroke="none" stroke-width="1" fill="none" fill-rule="evenodd">
        <g id="Croissant,-Coffee,-Beans,-Kitchen,-Food,-Drink" fill-rule="nonzero">
            <g id="croissant">
                <path d="M18.5262813,81.5598977 C18.5262813,81.5598977 89.2857289,121.993494 104.785841,141.537228 C120.285954,161.080962 350.08622,388.393248 350.08622,388.393248 C350.08622,388.393248 389.846752,396.272286 396.585248,416.489084 C403.323744,436.705882 416.802046,487.922905 431.627785,491.292153 C446.453524,494.661402 447.910957,355.587274 303.813729,213.644113 C153.30668,65.3867212 40.0918261,52.4845831 18.5262813,81.5598977 Z" id="Shape" fill="#FDBB03"></path>
                <path d="M501.653934,260.968102 L448.057616,168.258128 C448.183325,166.912 448.383673,165.585514 448.446527,164.218435 C449.674803,137.97156 439.132317,111.66576 419.519182,92.052624 C399.909974,72.4355601 373.623816,61.8773606 347.345514,63.1252788 C345.981054,63.188133 344.659806,63.3858619 343.313678,63.5128798 L250.603703,9.91787212 C229.967877,-2.01526343 205.504491,-2.83629668 183.628604,5.60973913 C152.082332,4.0501688 39.4135243,1.60540153 8.48401023,43.8015345 C1.94848082,52.7176675 -4.17587724,67.6992327 3.74113555,88.4411253 C12.5184655,111.449698 35.2350281,118.336164 55.278977,124.409453 C68.1117136,128.294629 81.320266,132.306824 91.45289,140.113841 C93.6108849,155.826087 101.330169,170.344102 114.316113,180.588031 L190.29246,240.528696 C192.34177,245.591079 195.33913,250.404665 199.50846,254.573995 L257.004358,312.069893 C261.199877,316.266721 266.034414,319.347887 271.136082,321.393269 L330.985084,397.258312 C341.222465,410.23378 355.731315,417.91378 371.430465,420.077013 C379.257125,430.217494 383.270629,443.449616 387.162353,456.298066 C393.235642,476.336777 400.122107,499.05465 423.126752,507.835908 C430.119284,510.504593 436.457084,511.579662 442.127059,511.579662 C453.282373,511.575734 461.858046,507.426046 467.765033,503.094343 C509.959857,472.164829 507.520327,359.481616 505.960757,327.944512 C514.404174,306.062077 513.583141,281.603928 501.653934,260.968102 Z M416.13422,162.706005 C415.478179,176.684522 409.539765,189.003949 399.305003,197.481412 L288.269095,291.155151 C286.615243,292.532706 282.748399,292.067847 279.878056,289.196194 L279.874128,289.192266 L222.37823,231.696368 C219.503959,228.826026 219.03779,224.964419 220.324992,223.412706 L314.184675,112.15157 C322.567857,102.026803 334.883355,96.0923171 348.861872,95.4375857 C349.741831,95.3943734 350.6231,95.3747315 351.503059,95.3747315 C367.81111,95.3747315 384.130946,102.411785 396.648102,114.925013 C409.837013,128.116542 416.93954,145.52978 416.13422,162.706005 Z M33.9648491,76.9060665 C31.0552225,69.2889207 32.6383632,65.5661176 34.5724399,62.9275499 C46.8761535,46.133688 96.5322967,38.8006957 142.955376,37.5423018 C142.512777,38.1616777 142.029586,38.7352225 141.601391,39.370312 L103.844338,89.8422506 C103.666251,90.0792634 103.49733,90.3202046 103.334957,90.5650742 C100.231529,95.2241432 97.7828338,100.092726 95.8422097,105.049043 C85.1988951,99.7457187 74.2609514,96.3620665 64.6612788,93.4524399 C47.5636215,88.2708951 36.9386394,84.7012992 33.9648491,76.9060665 Z M130.030977,108.838629 L167.756604,58.4099028 C167.934691,58.17289 168.103611,57.9319488 168.265985,57.6870793 C183.645627,34.5920818 213.311509,25.7270179 234.413504,37.9207366 L303.815038,78.0426803 C298.506476,81.8571458 293.615632,86.2752737 289.362496,91.4083683 L195.502813,202.669504 C195.371867,202.82402 195.293299,203.008655 195.167591,203.1671 L134.350895,155.192307 C121.289003,144.886834 119.460992,125.020972 130.030977,108.838629 Z M356.383427,377.22091 L308.399468,316.400286 C308.597197,316.241841 308.819806,316.135775 309.014916,315.973402 L420.050824,222.303591 C425.233678,218.007243 429.681923,213.083662 433.519959,207.741054 L473.64976,277.158302 C485.843478,298.248512 476.974486,327.922251 453.879488,343.309749 C453.634619,343.472123 453.393678,343.641043 453.156665,343.81913 L402.731867,381.540829 C386.546905,392.110813 366.6889,390.286731 356.383427,377.22091 Z M448.644256,477.003294 C446.003069,478.93868 442.278957,480.521821 434.661811,477.614813 C426.874435,474.637095 423.30091,464.012113 418.120675,446.914455 C415.200573,437.279427 411.802517,426.298271 406.463836,415.616982 C411.433248,413.669811 416.335877,411.348133 421.006731,408.236849 C421.251601,408.070547 421.492542,407.905555 421.729555,407.727468 L472.197565,369.970414 C472.833964,369.543529 473.403581,369.057719 474.025575,368.61643 C472.764563,415.032962 465.43288,464.703509 448.644256,477.003294 Z" id="Shape" fill="#80CBC4"></path>
            </g>
        </g>
    </g>
</svg>