
<svg width="275px" height="512px" viewBox="0 0 275 512" version="1.1" xmlns="http://www.w3.org/2000/svg" xmlns:xlink="http://www.w3.org/1999/xlink">
    <!-- Generator: Sketch 48.1 (47250) - http://www.bohemiancoding.com/sketch -->
    <desc>Created with Sketch.</desc>
    <defs></defs>
    <g id="UI-ClientWeb-Student" stroke="none" stroke-width="1" fill="none" fill-rule="evenodd">
        <g id="Frappe,-Coffee,-Beverage,-Kitchen,-Food,-Drink" fill-rule="nonzero">
            <g id="Frappe">
                <path d="M81.1765657,206.573899 C81.1765657,206.573899 94.7290505,427.182545 218.702869,430.17697 L208.932202,491.119192 L62.2131717,491.119192 L45.2460606,206.573899 L81.1765657,206.573899 Z" id="Shape" fill="#FDBB03"></path>
                <path d="M258.169535,142.391596 L250.940768,142.391596 C245.681131,104.768646 222.253253,72.9496566 189.752889,56.1351111 L190.895838,31.9392323 L250.184404,31.9392323 C259.003475,31.9392323 266.153374,24.7893333 266.153374,15.9702626 C266.153374,7.15119192 259.004768,0 250.185697,0 L175.663838,0 C167.13697,0 160.115071,6.69866667 159.714263,15.2164848 L158.294626,45.2951919 C151.405899,44.0048485 144.329697,43.2523636 137.069899,43.2523636 C79.0290101,43.2523636 31.0147879,86.4698182 23.1977374,142.390303 L15.9689697,142.390303 C7.14989899,142.391596 0,149.541495 0,158.360566 L0,206.268768 C0,215.091717 7.14989899,222.237737 15.9689697,222.237737 L22.8150303,222.237737 L36.3597576,467.183192 C37.7199192,491.765657 58.0719192,511.021253 82.6931717,511.021253 L191.446626,511.021253 C216.067879,511.021253 236.418586,491.765657 237.78004,467.183192 L251.324768,222.237737 L258.170828,222.237737 C266.989899,222.237737 274.139798,215.091717 274.139798,206.268768 L274.139798,158.360566 C274.139798,149.541495 266.988606,142.391596 258.169535,142.391596 Z M31.9392323,190.299798 L31.9392323,174.330828 L152.208808,174.330828 L151.456323,190.299798 L31.9392323,190.299798 Z M184.179071,174.330828 L242.200566,174.330828 L242.200566,190.299798 L183.426586,190.299798 L184.179071,174.330828 Z M218.702869,142.391596 L185.685333,142.391596 L188.026828,92.7599192 C203.583354,104.873374 214.784,122.327919 218.702869,142.391596 Z M137.069899,75.191596 C143.862949,75.191596 150.445253,76.0720808 156.770263,77.6171313 L153.715071,142.391596 L55.4369293,142.391596 C62.903596,104.144162 96.6710303,75.191596 137.069899,75.191596 Z M205.887354,465.418343 C205.46198,473.078949 199.118869,479.083313 191.446626,479.083313 L82.6931717,479.083313 C75.0209293,479.083313 68.6765253,473.078949 68.2524444,465.418343 L54.8059798,222.23903 L149.948768,222.23903 L139.75402,438.407758 C139.336404,447.219071 146.139798,454.697374 154.951111,455.113697 C155.208404,455.121455 155.461818,455.129212 155.715232,455.129212 C164.191677,455.129212 171.252364,448.466747 171.653172,439.912727 L181.920323,222.23903 L219.335111,222.23903 L205.887354,465.418343 Z" id="Shape" fill="#80CBC4"></path>
            </g>
        </g>
    </g>
</svg>