
<svg width="512px" height="512px" viewBox="0 0 512 512" version="1.1" xmlns="http://www.w3.org/2000/svg" xmlns:xlink="http://www.w3.org/1999/xlink">
    <!-- Generator: Sketch 48.1 (47250) - http://www.bohemiancoding.com/sketch -->
    <desc>Created with Sketch.</desc>
    <defs></defs>
    <g id="UI-ClientWeb-Student" stroke="none" stroke-width="1" fill="none" fill-rule="evenodd">
        <g id="Donut,-Sweet,-Beverage,-Kitchen,-Food,-Drink" fill-rule="nonzero">
            <g id="donut">
                <path d="M250.550303,24.7376162 C146.018263,24.7376162 57.6969697,94.0192323 28.9163636,189.156848 C70.2668283,150.636606 125.702465,127.032889 186.673131,127.032889 C314.559354,127.032889 418.230303,230.705131 418.230303,358.590061 C418.230303,381.944242 414.739394,404.474828 408.308364,425.726707 C453.692768,383.455677 482.108768,323.207758 482.108768,256.293495 C482.106182,128.409859 378.436525,24.7376162 250.550303,24.7376162 Z" id="Shape" fill="#FDBB03"></path>
                <path d="M255.511273,0 C114.620768,0 0,114.620768 0,255.511273 C0,396.401778 114.620768,511.022545 255.511273,511.022545 C396.401778,511.022545 511.022545,396.401778 511.022545,255.511273 C511.022545,114.620768 396.401778,0 255.511273,0 Z M255.511273,31.9392323 C357.302303,31.9392323 443.358384,100.342949 470.290101,193.578667 C468.838141,203.430788 463.270788,213.385051 457.394424,223.837091 C452.663596,232.257939 447.772444,240.964525 444.754747,250.259394 C441.6,259.968 440.362667,270.162747 439.164121,280.018747 C437.502707,293.656566 435.935677,306.53802 429.600323,315.244606 C423.174465,324.075313 411.354505,329.545697 398.838949,335.335434 C389.871192,339.48703 380.59701,343.779556 372.424404,349.721859 C364.377212,355.581414 357.515636,363.017051 350.881616,370.209616 C341.48202,380.400485 332.603475,390.027636 322.020848,393.461657 C312.054949,396.69398 299.446303,394.233535 286.092929,391.621818 C276.198141,389.687596 265.967192,387.687434 255.511273,387.687434 C245.055354,387.687434 234.824404,389.687596 224.929616,391.621818 C211.576242,394.233535 198.975354,396.697859 189.001697,393.457778 C178.417778,390.026343 169.536646,380.396606 160.137051,370.205737 C153.50303,363.015758 146.641455,355.581414 138.594263,349.721859 C130.422949,343.775677 121.147475,339.483152 112.175838,335.335434 C99.6641616,329.541818 87.8429091,324.075313 81.4183434,315.244606 C75.0829899,306.53802 73.5198384,293.660444 71.862303,280.022626 C70.6598788,270.162747 69.4212525,259.966707 66.2690909,250.263273 C63.250101,240.960646 58.3550707,232.255354 53.6229495,223.833212 C47.7517576,213.385051 42.184404,203.434667 40.7298586,193.586424 C67.657697,100.346828 153.717657,31.9392323 255.511273,31.9392323 Z M255.511273,479.083313 C132.231758,479.083313 31.9392323,378.790788 31.9392323,255.511273 C31.9392323,249.113859 32.2728081,242.797899 32.8003232,236.536242 C36.9803636,243.971879 40.8940606,251.023515 43.0868687,257.788121 C45.513697,265.254788 46.5583838,273.855354 47.6638384,282.966626 C49.6265051,299.088162 51.6538182,315.763071 61.7115152,329.584485 C71.862303,343.533899 87.1524848,350.610101 101.94101,357.449697 C110.206707,361.278061 118.017293,364.889212 124.250505,369.427394 C130.358303,373.872485 136.122182,380.121212 142.223515,386.734545 C152.820364,398.220929 164.829091,411.238141 181.47297,416.642586 C197.449697,421.832404 213.797495,418.631111 229.604848,415.543596 C238.762667,413.754182 247.414949,412.061737 255.50998,412.061737 C263.60501,412.061737 272.257293,413.754182 281.417697,415.543596 C291.158626,417.446788 301.098667,419.391354 311.033535,419.391354 C317.225374,419.391354 323.41204,418.63499 329.548283,416.642586 C346.192162,411.239434 358.200889,398.220929 368.795152,386.738424 C374.895192,380.122505 380.659071,373.876364 386.76299,369.431273 C392.998788,364.893091 400.810667,361.279354 409.072485,357.457455 C423.86101,350.611394 439.151192,343.539071 449.308444,329.588364 C459.367434,315.763071 461.394747,299.088162 463.357414,282.962747 C464.462869,273.855354 465.511434,265.254788 467.934384,257.784242 C470.127192,251.023515 474.042182,243.974465 478.220929,236.536242 C478.749737,242.797899 479.08202,249.113859 479.08202,255.511273 C479.083313,378.790788 378.790788,479.083313 255.511273,479.083313 Z" id="Shape" fill="#80CBC4"></path>
                <path d="M255.511273,336.356848 C300.090182,336.356848 336.356848,300.090182 336.356848,255.511273 C336.356848,210.932364 300.090182,174.665697 255.511273,174.665697 C210.932364,174.665697 174.665697,210.932364 174.665697,255.511273 C174.665697,300.090182 210.932364,336.356848 255.511273,336.356848 Z M255.511273,206.604929 C282.479192,206.604929 304.417616,228.543354 304.417616,255.511273 C304.417616,282.479192 282.479192,304.417616 255.511273,304.417616 C228.543354,304.417616 206.604929,282.479192 206.604929,255.511273 C206.604929,228.543354 228.543354,206.604929 255.511273,206.604929 Z" id="Shape" fill="#80CBC4"></path>
            </g>
        </g>
    </g>
</svg>