<svg width="512" height="512" xmlns="http://www.w3.org/2000/svg">
 <!-- Generator: Sketch 48.1 (47250) - http://www.bohemiancoding.com/sketch -->
 <desc>Created with Sketch.</desc>

 <g>
  <title>background</title>
  <rect fill="none" id="canvas_background" height="402" width="582" y="-1" x="-1"/>
 </g>
 <g>
  <title>Layer 1</title>
  <g fill-rule="evenodd" fill="none" id="UI-ClientWeb-Student">
   <g fill-rule="nonzero" id="Croissant,-Coffee,-Beans,-Kitchen,-Food,-Drink">
    <g id="croissant">
     <path fill="#FDBB03" id="Shape" d="m18.52628,81.5599c0,0 70.75945,40.43359 86.25956,59.97733c15.50011,19.54373 245.30038,246.85602 245.30038,246.85602c0,0 39.76053,7.87904 46.49903,28.09583c6.73849,20.2168 20.2168,71.43383 35.04254,74.80307c14.82573,3.36925 16.28317,-135.70488 -127.81406,-277.64804c-150.50705,-148.25739 -263.7219,-161.15953 -285.28745,-132.08421z"/>
     <path fill="#80CBC4" id="Shape" d="m501.65393,260.9681l-53.59631,-92.70997c0.12571,-1.34613 0.32605,-2.67262 0.38891,-4.0397c1.22827,-26.24687 -9.31421,-52.55267 -28.92735,-72.16581c-19.60921,-19.61706 -45.89536,-30.17526 -72.17367,-28.92734c-1.36446,0.06285 -2.6857,0.26058 -4.03183,0.3876l-92.70998,-53.59501c-20.63582,-11.93313 -45.09921,-12.75417 -66.9751,-4.30813c-31.54627,-1.55957 -144.21508,-4.00434 -175.14459,38.19179c-6.53553,8.91614 -12.65989,23.8977 -4.74287,44.6396c8.77733,23.00857 31.49389,29.89503 51.53784,35.96832c12.83273,3.88518 26.04129,7.89737 36.17391,15.70439c2.15799,15.71225 9.87728,30.23026 22.86322,40.47419l75.97635,59.94067c2.04931,5.06238 5.04667,9.87596 9.216,14.04529l57.4959,57.4959c4.19552,4.19683 9.03005,7.278 14.13172,9.32338l59.849,75.86504c10.23738,12.97547 24.74623,20.65547 40.44539,22.8187c7.82665,10.14048 11.84016,23.37261 15.73188,36.22106c6.07329,20.03871 12.95976,42.75658 35.9644,51.53784c6.99253,2.66868 13.33033,3.74375 19.00031,3.74375c11.15531,-0.00393 19.73099,-4.15361 25.63797,-8.48532c42.19483,-30.92951 39.7553,-143.61272 38.19573,-175.14983c8.44341,-21.88243 7.62238,-46.34058 -4.30683,-66.97641zm-85.51971,-98.26209c-0.65604,13.97851 -6.59446,26.29794 -16.82922,34.7754l-111.03591,93.67374c-1.65385,1.37756 -5.52069,0.9127 -8.39103,-1.95896l-0.00393,-0.00392l-57.4959,-57.4959c-2.87427,-2.87034 -3.34044,-6.73195 -2.05324,-8.28366l93.85969,-111.26114c8.38318,-10.12477 20.69867,-16.05925 34.67719,-16.71398c0.87996,-0.04322 1.76123,-0.06286 2.64119,-0.06286c16.30805,0 32.62789,7.03705 45.14504,19.55028c13.18891,13.19153 20.29144,30.60477 19.48612,47.781zm-382.16937,-85.79994c-2.90963,-7.61715 -1.32649,-11.33995 0.60759,-13.97852c12.30371,-16.79386 61.95986,-24.12685 108.38294,-25.38525c-0.4426,0.61938 -0.92579,1.19292 -1.35399,1.82801l-37.75705,50.47194c-0.17809,0.23701 -0.34701,0.47795 -0.50938,0.72282c-3.10343,4.65907 -5.55213,9.52766 -7.49275,14.48397c-10.64331,-5.30332 -21.58126,-8.68697 -31.18093,-11.5966c-17.09766,-5.18154 -27.72264,-8.75114 -30.69643,-16.54637zm96.06613,31.93256l37.72562,-50.42873c0.17809,-0.23701 0.34701,-0.47795 0.50939,-0.72282c15.37964,-23.095 45.04552,-31.96006 66.14751,-19.76634l69.40154,40.12194c-5.30856,3.81447 -10.19941,8.23259 -14.45254,13.36569l-93.85969,111.26113c-0.13094,0.15452 -0.20951,0.33916 -0.33522,0.4976l-60.81669,-47.97479c-13.0619,-10.30548 -14.88991,-30.17134 -4.31992,-46.35368zm226.35245,268.38228l-47.98396,-60.82062c0.19773,-0.15845 0.42034,-0.26451 0.61545,-0.42689l111.0359,-93.66981c5.18286,-4.29635 9.6311,-9.21993 13.46914,-14.56254l40.1298,69.41725c12.19372,21.09021 3.32473,50.76395 -19.77027,66.15145c-0.24487,0.16237 -0.48581,0.33129 -0.72283,0.50938l-50.42479,37.7217c-16.18497,10.56998 -36.04297,8.7459 -46.34844,-4.31992zm92.26083,99.78238c-2.64119,1.93539 -6.3653,3.51853 -13.98245,0.61152c-7.78737,-2.97772 -11.3609,-13.6027 -16.54113,-30.70036c-2.92011,-9.63502 -6.31816,-20.61618 -11.65684,-31.29747c4.96941,-1.94717 9.87204,-4.26885 14.54289,-7.38013c0.24487,-0.1663 0.48581,-0.3313 0.72283,-0.50938l50.468,-37.75706c0.6364,-0.42688 1.20602,-0.91269 1.82802,-1.35398c-1.26102,46.41653 -8.5927,96.08708 -25.38132,108.38686z"/>
    </g>
   </g>
  </g>
 </g>
</svg>